<?xml version="1.0" encoding="utf-8"?>
<!-- Generator: Adobe Illustrator 22.0.0, SVG Export Plug-In . SVG Version: 6.00 Build 0)  -->
<svg version="1.1" id="Layer_1" xmlns="http://www.w3.org/2000/svg" xmlns:xlink="http://www.w3.org/1999/xlink" x="0px" y="0px"
	 viewBox="0 0 2039.7 1412.7" style="enable-background:new 0 0 2039.7 1412.7;" xml:space="preserve">
<style type="text/css">
	.st0{fill:#00AF25;stroke:#68FF00;stroke-width:36;stroke-miterlimit:10;}
	.st1{fill:#FFFF15;stroke:#FFB117;stroke-width:2;stroke-miterlimit:10;}
	.st2{fill:#68FF00;stroke:#00AF25;stroke-width:2;stroke-miterlimit:10;}
	.st3{fill:#00D01A;stroke:#00AF25;stroke-width:2;stroke-miterlimit:10;}
	.st4{fill:#B2FF7D;stroke:#00AF25;stroke-width:2;stroke-miterlimit:10;}
	.st5{fill:#FFC317;stroke:#835931;stroke-width:2;stroke-miterlimit:10;}
	.st6{fill:#FFFF15;}
	.st7{fill:none;}
	.st8{font-family:'MyriadPro-Regular';}
	.st9{font-size:24px;}
	.st10{fill:none;stroke:#000000;stroke-width:2;stroke-miterlimit:10;}
	.st11{fill:#F3FF00;stroke:#00AF25;stroke-width:2;stroke-miterlimit:10;}
	.st12{fill:#68FF00;}
</style>
<line class="st0" x1="750.1" y1="1219.1" x2="750.1" y2="706.4"/>
<path class="st1" d="M465.1,1218.3c25.2-62.4-1.1-344.5-8.7-362.6c-4.9-11.6-95.2-256.7-195.8-118.5
	c-101.2,139.1,155.1,146.7,176,144.9C464.1,879.6,435.6,1112.7,465.1,1218.3"/>
<path class="st1" d="M467,1218.3c-25.2-62.4,1.1-344.5,8.7-362.6c4.9-11.6,95.2-256.7,195.8-118.5
	c101.2,139-155.2,146.6-176.1,144.7C468,879.6,496.4,1112.7,467,1218.3"/>
<path class="st2" d="M469,1215.7c30.2,0,27.3-42.8,28.7-98.6c1.5-57.2,1.8-156.7,1.4-199.1c-0.2-28.2-17-22.1-14.3-174.1
	c27.3-27-1.7-47.5-14.4-33.2c-11.6-13.9-41.3,4.2-13.5,34.5c0.2,149.7-14.6,147.2-14.6,172.9c0,42.4,1.7,141.9,1,199.4
	C442.7,1171.9,442.3,1213.9,469,1215.7"/>
<path class="st3" d="M153.6,1216.9c157.3-69.1,2.2-283.5,2.2-283.5s-155.9,212.6-0.5,283.2"/>
<path class="st1" d="M159.1,1215.5c29.6-43.7,8.1-203,16.1-207.7s-7.2,140,30.8,140c30.4,0-20.2-173-35.6-171.4
	c-20.2,2-10,163.4-12.6,242.4"/>
<path class="st3" d="M1321.5,1222.9c170.9,83.5,226,171.1,226,171.1c6.8-1.4-77.5-252-226.9-169.6"/>
<path class="st3" d="M1324.1,1222.9c-170.9,83.5-226,171.1-226,171.1c-6.8-1.4,77.5-252,226.9-169.6"/>
<path class="st1" d="M465.3,1214.7c-37.4-99.6-34.6-278.6-45.4-284.9s-65.3,231.6-164.5,92.3C155.7,882,412.1,877.1,433,879.2
	c27.4,2.8,58,240.3,34,339.9"/>
<path class="st3" d="M467,1219.1c-16.1-85.5,45.9-279.7,45.9-279.7c4.9-3.9,86.9,230.5-47.2,279.3"/>
<path class="st1" d="M467.2,1214.7c37.4-99.6,34.6-278.5,45.5-284.9c10.9-6.3,65.3,231.6,164.4,92.3
	c99.7-140.1-156.7-145-177.6-142.9c-27.4,2.8-58,240.3-34,339.9"/>
<path class="st3" d="M468.1,1219.1c16.1-85.5-45.9-279.7-45.9-279.7c-4.9-3.9-86.9,230.5,47.2,279.3"/>
<path class="st2" d="M154.8,1215c17.5,13.1,5.5-167,12.2-215.6c17.5-17.8-1.3-32.6-11.5-22.8c-9.3-9.5-29,3.8-11.5,23.7
	C146.7,1048,140.3,1230.7,154.8,1215"/>
<path class="st1" d="M153.1,1212.5c-29.6-43.7-8.1-203-16.1-207.7s7.2,140-30.8,140c-30.4,0,20.2-173,35.6-171.4
	c20.2,2,10,163.4,12.6,242.4"/>
<path class="st1" d="M1316.6,1220.2c-63.3-13.1-174.8-91.4-185.9-88.7c-10.4,2.6,22.7,135.7-77.2,160.9c-7.5,1.9-7.2-13.7-8-21.4
	c-7.7-74.8,28.9-157.8,43.2-169.1c19.4-15.5,162.1,53,231.8,120.1"/>
<path class="st1" d="M1314,1221.9c69.7-67.1,170.8-118.3,220.9-112.8c85,96.8,64,253,19,119c7,38-60-33.7-60-84
	c0-11.4-112.7,62.9-176,76"/>
<path class="st2" d="M1653.2,1381.7l16.7-778c17.1-29-2.9-64.5-19.8-40.5c-17.5-27-37.2,4.2-22.6,35.7
	c3.7,11.1,17.5,135.1,5.2,182.7c-7.3,28.4,7.8,86.2,0.4,114.5c-7.4,28.3,7,83.9-0.4,112.2c-7.4,28.3,7.6,84.4,0,113.4
	c-7.4,28.3,9.6,214.2,21,256.5"/>
<path class="st2" d="M1658.2,1377.2c11.4-42.3,29-164.7,21.6-193.1c-7.6-29,7.4-85,0-113.4c-7.4-28.3,7-83.9-0.4-112.2
	c-7.4-28.3,7.8-85.4,4.4-114.5c-3.9-34.2,0.5-75-13.4-112.2c-1.2-3.2-5.3-3.6-6-0.2c-0.9,4.2-2,8.2-3.1,10.7"/>
<path class="st2" d="M1806.7,1377.9l-0.9-1265.3c31.1-35.7,18.2-83.6-6.6-56.7c-25.6-30.3-40,8.4-13.2,52.5
	c6.8,15.5,1.8,141.6-26.3,224.8c-16.8,49.8,17.9,150.9,0.9,200.6c-17,49.6,16,146.9-0.9,196.5c-17,49.6,17.3,147.8,0,198.5
	c-17,49.6,22,375.1,48.2,449.1"/>
<path class="st2" d="M1787.9,1376.1c26.1-74.1,66.3-288.4,49.4-338.1c-17.3-50.7,17-148.9,0-198.5c-17-49.6,16-146.9-0.9-196.5
	c-17-49.6,11.8-149.2,0.9-200.6c-18.2-85.9,0.3-106-31.4-169.3"/>
<path class="st1" d="M2340,469.7"/>
<path class="st4" d="M1789.9,1376.1c-13.6-99.4,29.4-211.7-9.6-266.9c-36-51,50.5-132.5,10.4-199c-36.5-60.4,44.6-136.2-4.4-199
	c-42.5-54.5,44.5-121.2,0-184c-42.7-60.3,44.3-138.1,0-208c-6.3-10-6.8-44.9-7.4-55.8h27.3c1.2,8.6-3.1,44.3,2,52.3
	c44.3,69.9-42.7,147.7,0,208c44.5,62.8-42.5,129.5,0,184c49,62.8-32.1,138.6,4.4,199c40.1,66.4-46.3,148-10.4,199
	c44.1,62.4-7.3,171,7.7,272.2"/>
<path class="st5" d="M1784,950.6c29.9,0,23.6,43.6,0.1,43.6C1751.5,994.2,1755.4,950.6,1784,950.6"/>
<path class="st5" d="M1784,748.5c29.9,0,23.6,43.6,0.1,43.6C1751.5,792.1,1755.4,748.5,1784,748.5"/>
<path class="st5" d="M1784,546.4c29.9,0,23.6,43.6,0.1,43.6C1751.5,589.9,1755.4,546.4,1784,546.4"/>
<path class="st5" d="M1784,344.2c29.9,0,23.6,43.6,0.1,43.6C1751.5,387.8,1755.4,344.2,1784,344.2"/>
<path class="st5" d="M1813,1051.6c-29.9,0-23.6,43.6-0.1,43.6C1845.5,1095.2,1841.6,1051.6,1813,1051.6"/>
<path class="st5" d="M1813,849.5c-29.9,0-23.6,43.6-0.1,43.6C1845.5,893.1,1841.6,849.5,1813,849.5"/>
<path class="st5" d="M1813,647.4c-29.9,0-23.6,43.6-0.1,43.6C1845.5,691,1841.6,647.4,1813,647.4"/>
<path class="st5" d="M1813,445.3c-29.9,0-23.6,43.6-0.1,43.6C1845.5,488.9,1841.6,445.3,1813,445.3"/>
<rect x="1649.1" y="729.3" class="st4" width="13" height="648.9"/>
<path class="st5" d="M1645.4,788.6c15.2,0,12,23.3,0.1,23.3C1628.9,811.9,1630.9,788.6,1645.4,788.6"/>
<path class="st5" d="M1670.7,1191.7c15.2,0,12,23.3,0.1,23.3C1654.2,1215.1,1656.2,1191.7,1670.7,1191.7"/>
<path class="st5" d="M1645.7,1130.2c15.2,0,12,23.3,0.1,23.3C1629.2,1153.6,1631.2,1130.2,1645.7,1130.2"/>
<path class="st5" d="M1670.7,1077.6c15.2,0,12,23.3,0.1,23.3C1654.2,1101,1656.2,1077.6,1670.7,1077.6"/>
<path class="st5" d="M1643.4,1016.4c15.2,0,12,23.3,0.1,23.3C1626.9,1039.7,1628.9,1016.4,1643.4,1016.4"/>
<path class="st5" d="M1658.3,977.2c-1-15.1,22.5-13.5,23.3-1.6C1682.7,992.2,1659.3,991.8,1658.3,977.2"/>
<path class="st5" d="M1644.7,902.5c15.2,0,12,23.3,0.1,23.3C1628.2,925.8,1630.2,902.5,1644.7,902.5"/>
<path class="st5" d="M1670.7,851c15.2,0,12,23.3,0.1,23.3C1654.2,874.3,1656.2,851,1670.7,851"/>
<path class="st2" d="M919.2,1217.2c30.2,0,27.3-42.8,28.7-98.6c1.5-57.2,1.8-156.7,1.4-199.1c-0.2-28.2-17-23.1-14.3-175.1
	c27.3-27-1.7-47.5-14.4-33.2c-11.6-13.9-41.3,4.2-13.5,34.5c0.2,149.7-14.6,148.2-14.6,173.9c0,42.4,1.7,141.9,1,199.4
	C892.8,1173.4,892.5,1215.3,919.2,1217.2"/>
<path class="st5" d="M921,1170.4c15.2,0,12,23.3,0.1,23.3C904.5,1193.7,906.5,1170.4,921,1170.4"/>
<path class="st5" d="M921,1131c15.2,0,12,23.3,0.1,23.3C904.5,1154.3,906.5,1131,921,1131"/>
<path class="st5" d="M921,1091.6c15.2,0,12,23.3,0.1,23.3C904.5,1114.9,906.5,1091.6,921,1091.6"/>
<path class="st5" d="M921,1052.2c15.2,0,12,23.3,0.1,23.3C904.5,1075.5,906.5,1052.2,921,1052.2"/>
<path class="st5" d="M921,1012.8c15.2,0,12,23.3,0.1,23.3C904.5,1036.2,906.5,1012.8,921,1012.8"/>
<path class="st5" d="M921,973.5c15.2,0,12,23.3,0.1,23.3C904.5,996.8,906.5,973.5,921,973.5"/>
<path class="st5" d="M921,934.1c15.2,0,12,23.3,0.1,23.3C904.5,957.4,906.5,934.1,921,934.1"/>
<path class="st5" d="M921,894.7c15.2,0,12,23.3,0.1,23.3C904.5,918,906.5,894.7,921,894.7"/>
<path class="st2" d="M1314.7,1224.1c36.2,0,27.7-51.4,29.4-118.4c1.7-68.7,2.1-591.2,1.7-642.1c-0.3-33.8-15.7,5.3-15-115.7
	c27.3-27-1.7-47.5-14.4-33.2c-11.6-13.9-41.3,4.2-13.5,34.5c-0.7,115.7-20.3,83.7-20.3,114.5c0,50.9,7.1,573.4,6.2,642.4
	C1288,1171.5,1282.6,1221.9,1314.7,1224.1"/>
<path class="st5" d="M1322.1,1111.3c22.7,0,18,35,0.1,35C1297.3,1146.3,1300.3,1111.3,1322.1,1111.3"/>
<path class="st5" d="M1313.1,1017.2c22.7,0,18,35,0.1,35C1288.3,1052.2,1291.3,1017.2,1313.1,1017.2"/>
<path class="st5" d="M1322.1,923.1c22.7,0,18,35,0.1,35C1297.3,958.1,1300.3,923.1,1322.1,923.1"/>
<path class="st5" d="M1313.1,829c22.7,0,18,35,0.1,35C1288.3,864,1291.3,829,1313.1,829"/>
<path class="st5" d="M1322.1,735c22.7,0,18,35,0.1,35C1297.3,770,1300.3,735,1322.1,735"/>
<path class="st5" d="M1313.1,640.9c22.7,0,18,35,0.1,35C1288.3,675.9,1291.3,640.9,1313.1,640.9"/>
<path class="st5" d="M1322.1,546.8c22.7,0,18,35,0.1,35C1297.3,581.8,1300.3,546.8,1322.1,546.8"/>
<path class="st5" d="M1313.1,452.8c22.7,0,18,35,0.1,35C1288.3,487.8,1291.3,452.8,1313.1,452.8"/>
<path class="st2" d="M1003.5,1217.2c30.2,0,27.3-42.8,28.7-98.6c1.5-57.2,1.8-156.7,1.4-199.1c-0.2-28.2-17-32.1-14.3-184.1
	l-27.9,1.3c0.2,149.7-14.6,157.2-14.6,182.9c0,42.4,1.7,141.9,1,199.4C977.1,1173.4,976.8,1215.3,1003.5,1217.2"/>
<path class="st5" d="M1008.3,1170.4c15.2,0,12,23.3,0.1,23.3C991.8,1193.7,993.8,1170.4,1008.3,1170.4"/>
<path class="st5" d="M1002.3,1131c15.2,0,12,23.3,0.1,23.3C985.8,1154.3,987.8,1131,1002.3,1131"/>
<path class="st5" d="M1008.3,1091.6c15.2,0,12,23.3,0.1,23.3C991.8,1114.9,993.8,1091.6,1008.3,1091.6"/>
<path class="st5" d="M1002.3,1052.2c15.2,0,12,23.3,0.1,23.3C985.8,1075.5,987.8,1052.2,1002.3,1052.2"/>
<path class="st5" d="M1008.3,1012.8c15.2,0,12,23.3,0.1,23.3C991.8,1036.2,993.8,1012.8,1008.3,1012.8"/>
<path class="st5" d="M1002.3,973.5c15.2,0,12,23.3,0.1,23.3C985.8,996.8,987.8,973.5,1002.3,973.5"/>
<path class="st5" d="M1008.3,934.1c15.2,0,12,23.3,0.1,23.3C991.8,957.4,993.8,934.1,1008.3,934.1"/>
<path class="st5" d="M1002.3,894.7c15.2,0,12,23.3,0.1,23.3C985.8,918,987.8,894.7,1002.3,894.7"/>
<path class="st2" d="M834,1218.2c43.6,14.1,13.1-320.9,15.8-472.8c27.3-27-1.7-47.5-14.4-33.2c-11.6-13.9-41.3,4.2-13.5,34.5
	C822.1,896.3,793,1231.7,834,1218.2"/>
<path class="st5" d="M835.8,1171.4c15.2,0,12,23.3,0.1,23.3C819.3,1194.7,821.3,1171.4,835.8,1171.4"/>
<path class="st5" d="M835.8,1132c15.2,0,12,23.3,0.1,23.3C819.3,1155.3,821.3,1132,835.8,1132"/>
<path class="st5" d="M835.8,1092.6c15.2,0,12,23.3,0.1,23.3C819.3,1115.9,821.3,1092.6,835.8,1092.6"/>
<path class="st5" d="M835.8,1053.2c15.2,0,12,23.3,0.1,23.3C819.3,1076.5,821.3,1053.2,835.8,1053.2"/>
<path class="st5" d="M835.8,1013.8c15.2,0,12,23.3,0.1,23.3C819.3,1037.2,821.3,1013.8,835.8,1013.8"/>
<path class="st5" d="M835.8,974.5c15.2,0,12,23.3,0.1,23.3C819.3,997.8,821.3,974.5,835.8,974.5"/>
<path class="st5" d="M835.8,935.1c15.2,0,12,23.3,0.1,23.3C819.3,958.4,821.3,935.1,835.8,935.1"/>
<path class="st5" d="M835.8,895.7c15.2,0,12,23.3,0.1,23.3C819.3,919,821.3,895.7,835.8,895.7"/>
<path class="st5" d="M750.8,1170.6c15.2,0,12,23.3,0.1,23.3C734.3,1193.9,736.3,1170.6,750.8,1170.6"/>
<path class="st5" d="M750.8,1131.2c15.2,0,12,23.3,0.1,23.3C734.3,1154.6,736.3,1131.2,750.8,1131.2"/>
<path class="st5" d="M750.8,1091.8c15.2,0,12,23.3,0.1,23.3C734.3,1115.2,736.3,1091.8,750.8,1091.8"/>
<path class="st5" d="M750.8,1052.5c15.2,0,12,23.3,0.1,23.3C734.3,1075.8,736.3,1052.5,750.8,1052.5"/>
<path class="st5" d="M750.8,1013.1c15.2,0,12,23.3,0.1,23.3C734.3,1036.4,736.3,1013.1,750.8,1013.1"/>
<path class="st5" d="M750.8,973.7c15.2,0,12,23.3,0.1,23.3C734.3,997,736.3,973.7,750.8,973.7"/>
<path class="st5" d="M750.8,934.3c15.2,0,12,23.3,0.1,23.3C734.3,957.6,736.3,934.3,750.8,934.3"/>
<path class="st5" d="M750.8,894.9c15.2,0,12,23.3,0.1,23.3C734.3,918.3,736.3,894.9,750.8,894.9"/>
<path class="st6" d="M749.5,700c33.8,0,34.8,45.3,0,45.3C714.7,745.4,716.8,700,749.5,700z"/>
<rect x="723" y="618.7" class="st7" width="359" height="67"/>
<text transform="matrix(1 0 0 1 723 635.7015)"><tspan x="0" y="0" class="st8 st9">We could try different levels of </tspan><tspan x="0" y="28.8" class="st8 st9">complexity - the simplest to the left</tspan></text>
<g>
	<g>
		<path class="st10" d="M485,695.1c19.2-51.3,156.2-54.7,200.9-54.5"/>
		<g>
			<polygon points="700.1,640.9 680.1,648.8 684.9,640.7 680.3,632.5 			"/>
		</g>
	</g>
</g>
<path class="st11" d="M1019.4,744c28.2-20.3-1.7-47.5-14.4-33.2c-11.6-13.9-43.1,11.9-13.5,34.5
	C996.7,749.3,1012.8,748.7,1019.4,744z"/>
<rect x="1213.3" y="229.7" class="st7" width="205.7" height="43.5"/>
<text transform="matrix(1 0 0 1 1269.7504 246.7016)" class="st8 st9">GROWTH</text>
<rect x="75.7" y="1258.4" class="st7" width="205.7" height="117.7"/>
<text transform="matrix(1 0 0 1 156.2681 1275.4451)"><tspan x="0" y="0" class="st8 st9">BUD</tspan><tspan x="-67.8" y="28.8" class="st8 st9">with folded petals </tspan><tspan x="-62.6" y="57.6" class="st8 st9">and carpel inside</tspan></text>
<line class="st0" x1="1940.8" y1="1358.7" x2="1940.8" y2="510.9"/>
<path class="st12" d="M1940.3,622.9c16.9,1.5,30.9,47.8,30.9,70.8c0,24.8-12.1,72-30.9,72c-17.2,0-30.9-47.2-30.9-72
	C1909.4,672.7,1918.5,622.9,1940.3,622.9"/>
<path class="st12" d="M1940.3,761.1c16.9,1.5,30.9,47.8,30.9,70.8c0,24.8-12.1,72-30.9,72c-17.2,0-30.9-47.2-30.9-72
	C1909.4,810.9,1918.5,761.1,1940.3,761.1"/>
<path class="st12" d="M1940.3,899.4c16.9,1.5,30.9,47.8,30.9,70.8c0,24.8-12.1,72-30.9,72c-17.2,0-30.9-47.2-30.9-72
	C1909.4,949.2,1918.5,899.4,1940.3,899.4"/>
<path class="st12" d="M1940.3,1037.6c16.9,1.5,30.9,47.8,30.9,70.8c0,24.8-12.1,72-30.9,72c-17.2,0-30.9-47.2-30.9-72
	C1909.4,1087.4,1918.5,1037.6,1940.3,1037.6"/>
<path class="st12" d="M1940.3,1175.9c16.9,1.5,30.9,47.8,30.9,70.8c0,24.8-12.1,72-30.9,72c-17.2,0-30.9-47.2-30.9-72
	C1909.4,1225.7,1918.5,1175.9,1940.3,1175.9"/>
<path class="st5" d="M1941.5,671.2c22.7,0,18,35,0.1,35C1916.7,706.2,1919.6,671.2,1941.5,671.2"/>
<path class="st5" d="M1941.5,1229.8c22.7,0,18,35,0.1,35C1916.7,1264.8,1919.6,1229.8,1941.5,1229.8"/>
<path class="st5" d="M1941.5,1090.1c22.7,0,18,35,0.1,35C1916.7,1125.1,1919.6,1090.1,1941.5,1090.1"/>
<path class="st5" d="M1941.5,950.5c22.7,0,18,35,0.1,35C1916.7,985.5,1919.6,950.5,1941.5,950.5"/>
<path class="st5" d="M1941.5,810.8c22.7,0,18,35,0.1,35C1916.7,845.8,1919.6,810.8,1941.5,810.8"/>
<path class="st6" d="M1940.6,487.8c33.8,0,34.8,45.3,0,45.3C1905.8,533.1,1907.9,487.8,1940.6,487.8z"/>
<rect x="1872.3" y="374" class="st7" width="136" height="104.2"/>
<text transform="matrix(1 0 0 1 1888.4794 391.0244)"><tspan x="0" y="0" class="st8 st9">1 line with </tspan><tspan x="22.5" y="28.8" class="st8 st9">green </tspan><tspan x="15" y="57.6" class="st8 st9">ellipses</tspan></text>
</svg>
